<mxfile host="app.diagrams.net" modified="2023-12-01T20:06:41.576Z" agent="Mozilla/5.0 (Macintosh; Intel Mac OS X 10_15_7) AppleWebKit/537.36 (KHTML, like Gecko) Chrome/119.0.0.0 Safari/537.36" version="22.1.5" etag="cZldwtBXt7EQb2F071E5" type="github">
  <diagram name="Page-1" id="B_gOehbloBb_RJARg5Fa">
    <mxGraphModel>
      <root>
        <mxCell id="0" />
        <mxCell id="1" parent="0" />
      </root>
    </mxGraphModel>
  </diagram>
</mxfile>
